<mxfile host="app.diagrams.net" modified="2023-03-18T09:52:16.749Z" agent="5.0 (Windows NT 10.0; Win64; x64) AppleWebKit/537.36 (KHTML, like Gecko) Chrome/111.0.0.0 Safari/537.36" etag="w0PB12uVrxCHxYVLi9rt" version="21.0.8" type="github">
  <diagram name="Page-1" id="oUGUHpaBGy30pAXyqQJv">
    <mxGraphModel dx="1050" dy="541" grid="1" gridSize="10" guides="1" tooltips="1" connect="1" arrows="1" fold="1" page="1" pageScale="1" pageWidth="827" pageHeight="1169" math="0" shadow="0">
      <root>
        <mxCell id="0" />
        <mxCell id="1" parent="0" />
        <mxCell id="EZyOxLOicDC4srK4Cdya-2" value="" style="rounded=0;whiteSpace=wrap;html=1;" vertex="1" parent="1">
          <mxGeometry x="120" y="240" width="200" height="140" as="geometry" />
        </mxCell>
        <mxCell id="EZyOxLOicDC4srK4Cdya-3" value="&lt;h1&gt;Heading&lt;/h1&gt;&lt;p&gt;Lorem ipsum dolor sit amet, consectetur adipisicing elit, sed do eiusmod tempor incididunt ut labore et dolore magna aliqua.&lt;/p&gt;" style="text;html=1;strokeColor=none;fillColor=none;spacing=5;spacingTop=-20;whiteSpace=wrap;overflow=hidden;rounded=0;" vertex="1" parent="1">
          <mxGeometry x="130" y="140" width="190" height="120" as="geometry" />
        </mxCell>
        <mxCell id="EZyOxLOicDC4srK4Cdya-4" value="Actor" style="shape=umlActor;verticalLabelPosition=bottom;verticalAlign=top;html=1;outlineConnect=0;" vertex="1" parent="1">
          <mxGeometry x="280" y="30" width="150" height="280" as="geometry" />
        </mxCell>
        <mxCell id="EZyOxLOicDC4srK4Cdya-5" style="edgeStyle=orthogonalEdgeStyle;rounded=0;orthogonalLoop=1;jettySize=auto;html=1;exitX=0.5;exitY=0.5;exitDx=0;exitDy=0;exitPerimeter=0;" edge="1" parent="1" source="EZyOxLOicDC4srK4Cdya-4" target="EZyOxLOicDC4srK4Cdya-4">
          <mxGeometry relative="1" as="geometry">
            <Array as="points">
              <mxPoint x="415" y="170" />
              <mxPoint x="415" y="230" />
              <mxPoint x="650" y="230" />
              <mxPoint x="650" y="420" />
              <mxPoint x="415" y="420" />
            </Array>
          </mxGeometry>
        </mxCell>
      </root>
    </mxGraphModel>
  </diagram>
</mxfile>
